<svg xmlns="http://www.w3.org/2000/svg" xmlns:xlink="http://www.w3.org/1999/xlink" width="0" height="0" viewBox="0 0 64 64">
  <symbol  id="mail" viewBox="0 0 64 64">
    <path d="M53.944,44.43c0,2.532-2.059,4.589-4.588,4.589H14.565c-2.53,0-4.588-2.057-4.588-4.589V19.571c0-2.53,2.059-4.551,4.588-4.551l34.834,0c2.531,0,4.545,2.06,4.545,4.589V44.43z M48.221,41.534l-9.382-8.567l0.008-0.01l9.428-10.309c0.343-0.375,0.315-0.955-0.057-1.298c-0.376-0.34-0.952-0.316-1.297,0.059L35.55,33.847c-1.894,2.059-5.205,2.059-7.096,0l-11.39-12.454c-0.343-0.375-0.925-0.403-1.298-0.06c-0.376,0.345-0.403,0.924-0.06,1.298l9.445,10.329l-9.386,8.572c-0.375,0.34-0.402,0.921-0.059,1.294c0.18,0.2,0.43,0.301,0.677,0.301c0.221,0,0.442-0.078,0.619-0.24l9.386-8.573l0.708,0.779c1.299,1.412,3.039,2.19,4.9,2.19s3.601-0.778,4.902-2.193l0.704-0.77l9.381,8.569c0.177,0.161,0.397,0.239,0.619,0.239c0.248,0,0.498-0.101,0.677-0.3C48.624,42.456,48.596,41.874,48.221,41.534z"/>
  </symbol>
  <symbol id="mail-with-notif" viewBox="0 0 64 64">
    <circle cx="50.295" cy="17.938" r="7.801"/>
    <path d="M50.323,27.821c-1.961,0-3.798-0.579-5.335-1.563l-6.135,6.699l-0.011,0.01l9.38,8.567c0.375,0.34,0.402,0.922,0.058,1.295c-0.18,0.199-0.431,0.3-0.678,0.3c-0.222,0-0.442-0.078-0.618-0.239l-9.381-8.569l-0.704,0.77c-1.302,1.415-3.041,2.193-4.902,2.193s-3.601-0.778-4.9-2.19l-0.708-0.779l-9.387,8.573c-0.176,0.162-0.396,0.24-0.618,0.24c-0.247,0-0.497-0.101-0.677-0.301c-0.344-0.373-0.316-0.954,0.059-1.294l9.386-8.572l-9.444-10.329c-0.344-0.375-0.316-0.954,0.06-1.298c0.373-0.343,0.955-0.315,1.298,0.06l11.391,12.454c1.891,2.059,5.201,2.059,7.096,0l7.974-8.723c-1.913-1.802-3.113-4.361-3.113-7.196c0-1.016,0.154-1.928,0.439-2.928H14.564C12.035,15,10,17.042,10,19.571V44.43c0,2.532,2.035,4.57,4.564,4.57h34.791C51.885,49,54,46.962,54,44.43V27.117C53,27.567,51.613,27.821,50.323,27.821z"/>
  </symbol>
  <symbol id="mail-with-notif-color" viewBox="0 0 64 64">
    <circle cx="50.295" cy="17.938" r="7.801" fill="deeppink" />
    <path d="M50.323,27.821c-1.961,0-3.798-0.579-5.335-1.563l-6.135,6.699l-0.011,0.01l9.38,8.567c0.375,0.34,0.402,0.922,0.058,1.295c-0.18,0.199-0.431,0.3-0.678,0.3c-0.222,0-0.442-0.078-0.618-0.239l-9.381-8.569l-0.704,0.77c-1.302,1.415-3.041,2.193-4.902,2.193s-3.601-0.778-4.9-2.19l-0.708-0.779l-9.387,8.573c-0.176,0.162-0.396,0.24-0.618,0.24c-0.247,0-0.497-0.101-0.677-0.301c-0.344-0.373-0.316-0.954,0.059-1.294l9.386-8.572l-9.444-10.329c-0.344-0.375-0.316-0.954,0.06-1.298c0.373-0.343,0.955-0.315,1.298,0.06l11.391,12.454c1.891,2.059,5.201,2.059,7.096,0l7.974-8.723c-1.913-1.802-3.113-4.361-3.113-7.196c0-1.016,0.154-1.928,0.439-2.928H14.564C12.035,15,10,17.042,10,19.571V44.43c0,2.532,2.035,4.57,4.564,4.57h34.791C51.885,49,54,46.962,54,44.43V27.117C53,27.567,51.613,27.821,50.323,27.821z"/>
  </symbol>
</svg>
