<svg xmlns="http://www.w3.org/2000/svg" viewBox="0 0 100 100">
  <style>
    .iconic { -webkit-filter: none }
    .iconic--lg { opacity: 0; }
    .iconic--md { opacity: 0; }
    .iconic--sm { opacity: 0; }
    @media (max-width: 128px) {
      .iconic--sm {
        opacity: 1;
      }
    }
    @media (min-width: 129px) and (max-width: 256px) {
      .iconic--md {
        opacity: 1;
      }
    }
    @media (min-width: 257px) {
      .iconic--lg {
        opacity: 1;
      }
    }
  </style>
  <g class="iconic iconic--lg">
    <path display="inline" d="M95.895,87.19L79.473,63.848H57.676c0.486-0.645,0.786-1.438,0.786-2.309
		c0-2.123-1.722-3.846-3.846-3.846c-2.125,0-3.847,1.723-3.847,3.846c0,0.871,0.3,1.664,0.786,2.309H20.767L4.105,87.19
		c-1.114,1.114-1.802,2.652-1.802,4.352s0.688,3.238,1.802,4.353c1.114,1.113,2.653,1.802,4.353,1.802h83.084
		c1.699,0,3.237-0.688,4.353-1.802c1.113-1.114,1.802-2.653,1.802-4.353S97.008,88.305,95.895,87.19z M47.692,77.694
		c-1.274,0-2.308-1.032-2.308-2.308c0-1.274,1.033-2.308,2.308-2.308c1.275,0,2.308,1.033,2.308,2.308
		C50,76.662,48.967,77.694,47.692,77.694z M53.846,86.927c-0.424,0-0.769-0.345-0.769-0.77s0.345-0.77,0.769-0.77
		c0.426,0,0.771,0.345,0.771,0.77S54.271,86.927,53.846,86.927z"/>
	<circle display="inline" cx="46.923" cy="53.077" r="1.539"/>
	<path display="inline" fill="none" stroke="#000000" stroke-width="2" stroke-linecap="round" d="M73.849,56.924h-7.693"/>
	<path display="inline" fill="none" stroke="#000000" stroke-width="2" stroke-linecap="round" d="M68.463,49.231h-6.924"/>
	<path display="inline" fill="none" stroke="#000000" stroke-width="2" stroke-linecap="round" d="M63.078,41.538h-6.154"/>
	<path display="inline" fill="none" stroke="#000000" stroke-width="2" stroke-linecap="round" d="M63.078,33.845h-6.154"/>
	<path display="inline" fill="none" stroke="#000000" stroke-width="2" stroke-linecap="round" d="M63.078,26.152h-6.154"/>
	<path display="inline" fill="none" stroke="#000000" stroke-width="2" stroke-linecap="round" d="M63.078,18.458h-6.154"/>
	<path display="inline" fill="none" stroke="#000000" stroke-width="2" stroke-linecap="round" d="M63.078,10.766h-6.154"/>
	<path display="inline" fill="none" stroke="#000000" stroke-width="4" d="M36.153,2.303v38.993L4.105,87.19
		c-0.977,1.274-1.802,2.652-1.802,4.352s0.688,3.238,1.802,4.353c1.114,1.113,2.653,1.802,4.353,1.802h83.084
		c1.699,0,3.237-0.688,4.353-1.802c1.113-1.114,1.802-2.653,1.802-4.353s-0.827-3.077-1.802-4.352L63.848,41.296V2.303H36.153z"/>
	<path display="inline" fill="none" stroke="#000000" stroke-width="4" stroke-linecap="round" d="M33.076,2.303h33.849"/>
  </g>
  <g class="iconic iconic--md">
    <path display="inline" d="M96.603,81.976L81.185,61.777l-22.247-0.003c0.545-0.934,0.877-2.006,0.878-3.165
		c0-3.499-2.833-6.333-6.33-6.333c-3.5-0.001-6.333,2.831-6.334,6.33c0,1.159,0.332,2.232,0.876,3.167l-30.139-0.005L4.022,81.96
		c-1.72,1.72-2.785,4.094-2.785,6.716s1.064,4.996,2.783,6.716c1.719,1.719,4.093,2.783,6.713,2.783l79.147,0.014
		c2.622,0,4.996-1.064,6.716-2.782c1.721-1.719,2.783-4.094,2.784-6.715c0-2.622-1.063-4.996-2.781-6.716H96.603z M40.816,77.602
		c-1.747,0-3.166-1.419-3.165-3.167c0-1.747,1.419-3.166,3.166-3.166c1.748,0.001,3.166,1.42,3.166,3.167
		C43.983,76.184,42.564,77.603,40.816,77.602z M48.73,87.101c-0.875,0-1.583-0.709-1.583-1.584s0.709-1.582,1.583-1.582
		s1.583,0.708,1.583,1.583S49.604,87.101,48.73,87.101z"/>
	<path display="inline" fill="none" stroke="#000000" stroke-linecap="round" d="M74.063,50.696l-9.498-0.002"/>
	<path display="inline" fill="none" stroke="#000000" stroke-linecap="round" d="M64.567,38.031l-6.332-0.001"/>
	<path display="inline" fill="none" stroke="#000000" stroke-linecap="round" d="M64.569,25.368l-6.332-0.001"/>
	<path display="inline" fill="none" stroke="#000000" stroke-linecap="round" d="M64.571,12.704l-6.332-0.001"/>
	<path display="inline" fill="none" stroke="#000000" stroke-width="2" d="M10.737,96.591c-2.115,0-4.1-0.822-5.598-2.316
		c-1.497-1.495-2.316-3.483-2.315-5.599s1.051-3.941,2.317-5.597l29.35-45.167l0.006-36.293l31.659,0.005L66.15,37.917
		l29.334,45.176c1.269,1.663,2.317,3.481,2.317,5.595c-0.001,2.114-0.824,4.1-2.318,5.596c-1.495,1.499-3.483,2.317-5.599,2.317
		l-79.147-0.014V96.591z"/>
	<path display="inline" fill="none" stroke="#000000" stroke-width="2" stroke-linecap="round" d="M29.748,1.618l41.156,0.007"/>
  </g>
  <g class="iconic iconic--sm">
    <path d="M95.204,76.525l-9.788-13.642H63.074c0-3.608-2.931-6.538-6.538-6.538c-3.609,0-6.54,2.93-6.54,6.538H14.308L4.794,76.525
		c-2.472,2.465-3.837,5.745-3.837,9.244c0,3.497,1.361,6.787,3.833,9.244c2.464,2.472,5.746,3.833,9.244,3.833H85.96
		c3.497,0,6.787-1.361,9.244-3.833c2.472-2.465,3.832-5.747,3.832-9.244C99.036,82.271,97.664,78.97,95.204,76.525z"/>
	<path fill="none" stroke="#000000" d="M14.034,98.847c-3.608,0-6.877-1.463-9.244-3.833c-2.371-2.366-3.833-5.636-3.833-9.244
		c0-3.609,1.462-6.878,3.833-9.244L33.65,33.46V0.767h32.693V33.46l28.86,43.065c2.37,2.366,3.832,5.635,3.832,9.244
		c0,3.608-1.462,6.878-3.832,9.244c-2.366,2.37-5.636,3.833-9.244,3.833H14.034z"/>
	<path fill="none" stroke="#000000" stroke-linecap="round" d="M27.111,0.767h45.771"/>
  </g>
</svg>
