<svg width="0" height="0" xmlns="http://www.w3.org/2000/svg" xmlns:xlink="http://www.w3.org/1999/xlink">
  <defs>
    <path id="part1" d="M20,79.446V64.398c0,0,0.093,11.171,30,11.171c29.908,0,30-11.171,30-11.171v15.232c0,0-0.186,11.906-30.092,11.906  C20,91.537,20,79.446,20,79.446z"/>
    <path id="part2" d="M20,59.784V44.739c0,0,0.093,11.168,30,11.168c29.908,0,30-11.168,30-11.168v15.23c0,0-0.186,11.908-30.092,11.908  C20,71.877,20,59.784,20,59.784z"/>
    <path id="part3" d="M20,39.57V24.524c0,0,0.093,11.169,30,11.169c29.908,0,30-11.169,30-11.169v15.231c0,0-0.186,11.906-30.092,11.906  C20,51.661,20,39.57,20,39.57z"/>
    <ellipse id="part4" cx="50" cy="19.724" rx="30" ry="11.262"/>
    <text>Created by Cees de Vries, from the Noun Project</text>
  </defs>

  <symbol id="low" viewBox="0 0 100 100">
    <use xlink:href="#part4" />
    <use xlink:href="#part3" />
    <use xlink:href="#part2" />
    <use xlink:href="#part1" fill="currentColor" />
  </symbol>

  <symbol id="medium" viewBox="0 0 100 100">
    <use xlink:href="#part4" />
    <use xlink:href="#part3" />
    <use xlink:href="#part2" fill="currentColor" />
    <use xlink:href="#part1" fill="currentColor" />
  </symbol>

  <symbol id="high" viewBox="0 0 100 100">
    <use xlink:href="#part4" />
    <use xlink:href="#part3" fill="currentColor" />
    <use xlink:href="#part2" fill="currentColor" />
    <use xlink:href="#part1" fill="currentColor" />
  </symbol>

  <symbol id="max" viewBox="0 0 100 100" fill="currentColor">
    <use xlink:href="#part4" />
    <use xlink:href="#part3" />
    <use xlink:href="#part2" />
    <use xlink:href="#part1" />
  </symbol>

</svg>